<svg width="29" height="32" viewBox="0 0 29 32" fill="none" xmlns="http://www.w3.org/2000/svg">
<path d="M3.16667 31.6679H25.3333C26.1732 31.6679 26.9786 31.3343 27.5725 30.7404C28.1664 30.1466 28.5 29.3411 28.5 28.5013V14.2513C28.5012 14.0429 28.4613 13.8363 28.3825 13.6434C28.3037 13.4505 28.1876 13.275 28.0408 13.1271L15.3742 0.460422C15.0775 0.165524 14.6762 0 14.2579 0C13.8396 0 13.4383 0.165524 13.1417 0.460422L0.475 13.1271C0.325394 13.2737 0.206375 13.4486 0.124838 13.6416C0.043302 13.8345 0.000869646 14.0418 0 14.2513V28.5013C0 29.3411 0.33363 30.1466 0.927495 30.7404C1.52136 31.3343 2.32681 31.6679 3.16667 31.6679ZM11.0833 28.5013V20.5846H17.4167V28.5013H11.0833ZM3.16667 14.9004L14.25 3.81709L25.3333 14.9004V28.5013H20.5833V20.5846C20.5833 19.7447 20.2497 18.9393 19.6558 18.3454C19.062 17.7516 18.2565 17.4179 17.4167 17.4179H11.0833C10.2435 17.4179 9.43803 17.7516 8.84416 18.3454C8.2503 18.9393 7.91667 19.7447 7.91667 20.5846V28.5013H3.16667V14.9004Z" fill="white"/>
</svg>
