<svg width="34" height="34" viewBox="0 0 34 34" fill="none" xmlns="http://www.w3.org/2000/svg">
<path d="M14.8748 24.2959L20.5132 21.0659C21.4623 20.5275 21.4623 19.1534 20.5132 18.6009L14.8748 15.3709C13.9257 14.8325 12.7498 15.5267 12.7498 16.6034V23.0492C12.7498 24.14 13.9257 24.8342 14.8748 24.2959ZM29.7498 8.50003H18.9973L23.1623 4.33503C23.4457 4.0517 23.4457 3.61253 23.1623 3.3292C22.879 3.04587 22.4398 3.04587 22.1565 3.3292L16.9998 8.48587L11.8432 3.3292C11.5598 3.04587 11.1207 3.04587 10.8373 3.3292C10.554 3.61253 10.554 4.0517 10.8373 4.33503L15.0023 8.50003H4.24984C3.49839 8.50003 2.77772 8.79854 2.24637 9.3299C1.71501 9.86125 1.4165 10.5819 1.4165 11.3334V28.3334C1.4165 29.8917 2.6915 31.1667 4.24984 31.1667H29.7498C31.3082 31.1667 32.5832 29.8917 32.5832 28.3334V11.3334C32.5832 10.5819 32.2847 9.86125 31.7533 9.3299C31.222 8.79854 30.5013 8.50003 29.7498 8.50003ZM28.3332 28.3334H5.6665C4.88734 28.3334 4.24984 27.6959 4.24984 26.9167V12.75C4.24984 11.9709 4.88734 11.3334 5.6665 11.3334H28.3332C29.1123 11.3334 29.7498 11.9709 29.7498 12.75V26.9167C29.7498 27.6959 29.1123 28.3334 28.3332 28.3334Z" fill="white"/>
</svg>
