<svg width="23" height="21" viewBox="0 0 23 21" fill="none" xmlns="http://www.w3.org/2000/svg">
<path d="M9.89583 15.5729L14.0417 13.1979C14.7396 12.8021 14.7396 11.7917 14.0417 11.3854L9.89583 9.01042C9.19792 8.61458 8.33333 9.125 8.33333 9.91667V14.6563C8.33333 15.4583 9.19792 15.9688 9.89583 15.5729ZM20.8333 3.95833H12.9271L15.9896 0.895833C16.1979 0.6875 16.1979 0.364583 15.9896 0.15625C15.7812 -0.0520833 15.4583 -0.0520833 15.25 0.15625L11.4583 3.94792L7.66667 0.15625C7.45833 -0.0520833 7.13542 -0.0520833 6.92708 0.15625C6.71875 0.364583 6.71875 0.6875 6.92708 0.895833L9.98958 3.95833H2.08333C1.5308 3.95833 1.0009 4.17783 0.610194 4.56853C0.219493 4.95923 0 5.48913 0 6.04167V18.5417C0 19.6875 0.9375 20.625 2.08333 20.625H20.8333C21.9792 20.625 22.9167 19.6875 22.9167 18.5417V6.04167C22.9167 5.48913 22.6972 4.95923 22.3065 4.56853C21.9158 4.17783 21.3859 3.95833 20.8333 3.95833ZM19.7917 18.5417H3.125C2.55208 18.5417 2.08333 18.0729 2.08333 17.5V7.08333C2.08333 6.51042 2.55208 6.04167 3.125 6.04167H19.7917C20.3646 6.04167 20.8333 6.51042 20.8333 7.08333V17.5C20.8333 18.0729 20.3646 18.5417 19.7917 18.5417Z" fill="white"/>
</svg>
