<svg width="35" height="35" viewBox="0 0 35 35" fill="none" xmlns="http://www.w3.org/2000/svg">
<path d="M29.4173 9.8437H26.7033L20.0446 16.4995C20.2739 17.084 20.295 17.7297 20.1043 18.3279C19.9136 18.9261 19.5227 19.4404 18.9974 19.7843C18.4721 20.1282 17.8444 20.2807 17.2199 20.2163C16.5953 20.1518 16.012 19.8742 15.568 19.4302C15.1241 18.9863 14.8465 18.403 14.782 17.7784C14.7176 17.1539 14.8701 16.5262 15.214 16.0009C15.5579 15.4756 16.0722 15.0847 16.6704 14.894C17.2686 14.7033 17.9143 14.7244 18.4987 14.9537L25.156 8.29641V5.58245C25.1562 5.2193 25.3004 4.87103 25.5571 4.61412L28.08 2.0912C28.1266 2.04408 28.1852 2.0106 28.2495 1.99441C28.3137 1.97821 28.3812 1.97991 28.4446 1.99933C28.5744 2.03725 28.6706 2.14516 28.6969 2.27787L29.3677 5.6335L32.7219 6.30433C32.8531 6.33058 32.961 6.42683 32.999 6.55662C33.0181 6.61967 33.0198 6.68673 33.0039 6.75067C32.988 6.81461 32.955 6.87304 32.9085 6.91975L30.3842 9.44266C30.2573 9.56977 30.1066 9.67062 29.9406 9.73943C29.7747 9.80825 29.5969 9.84368 29.4173 9.8437Z" fill="white"/>
<path d="M3.82812 17.5C3.82812 21.126 5.26855 24.6035 7.83252 27.1675C10.3965 29.7315 13.874 31.1719 17.5 31.1719C19.2954 31.1719 21.0733 30.8182 22.732 30.1312C24.3907 29.4441 25.8979 28.437 27.1675 27.1675C28.437 25.8979 29.4441 24.3908 30.1312 22.732C30.8182 21.0733 31.1719 19.2954 31.1719 17.5C31.1719 16.1904 30.9881 14.9246 30.6454 13.7273C30.5773 13.4524 30.6185 13.1618 30.7603 12.9166C30.9021 12.6714 31.1335 12.4908 31.4057 12.4128C31.678 12.3348 31.9699 12.3654 32.22 12.4982C32.4702 12.6311 32.659 12.8557 32.7469 13.125C33.1465 14.5163 33.3594 15.9833 33.3594 17.5C33.3594 26.2588 26.2588 33.3594 17.5 33.3594C8.74125 33.3594 1.64062 26.2588 1.64062 17.5C1.64062 8.74126 8.74125 1.64063 17.5 1.64063C18.9802 1.63917 20.4517 1.8448 21.875 2.25167C22.0138 2.2906 22.1435 2.35658 22.2567 2.44581C22.3699 2.53504 22.4643 2.64576 22.5346 2.77161C22.6049 2.89746 22.6495 3.03596 22.6661 3.17914C22.6827 3.32232 22.6708 3.46736 22.6311 3.60593C22.5914 3.74449 22.5247 3.87384 22.4349 3.98655C22.345 4.09926 22.2338 4.1931 22.1075 4.26267C21.9813 4.33224 21.8426 4.37618 21.6993 4.39196C21.556 4.40773 21.4111 4.39503 21.2727 4.35459C20.0458 4.0042 18.776 3.82699 17.5 3.82813C13.874 3.82813 10.3965 5.26856 7.83252 7.83253C5.26855 10.3965 3.82812 13.874 3.82812 17.5Z" fill="white"/>
<path d="M10.3908 17.5002C10.3948 18.4661 10.5957 19.421 10.9812 20.3067C11.3666 21.1923 11.9285 21.9901 12.6326 22.6514C13.3367 23.3126 14.1681 23.8234 15.0762 24.1526C15.9843 24.4818 16.9499 24.6225 17.9141 24.566C18.8784 24.5095 19.821 24.2571 20.6844 23.8242C21.5479 23.3913 22.314 22.7869 22.9361 22.048C23.5582 21.3091 24.0231 20.4512 24.3026 19.5266C24.582 18.602 24.6701 17.6302 24.5614 16.6704C24.5308 16.476 24.5533 16.277 24.6266 16.0944C24.6999 15.9117 24.8212 15.7523 24.9777 15.6331C25.1342 15.5138 25.3201 15.4391 25.5156 15.4168C25.7111 15.3945 25.909 15.4256 26.0883 15.5066C26.4543 15.67 26.7008 16.0185 26.7329 16.4181C26.9593 18.3362 26.5825 20.2771 25.655 21.9712C24.7274 23.6653 23.2951 25.0283 21.5572 25.8708C19.8193 26.7133 17.862 26.9934 15.9575 26.6723C14.053 26.3511 12.2959 25.4446 10.9304 24.0787C9.56521 22.7143 8.65846 20.959 8.33588 19.056C8.01329 17.1531 8.29086 15.197 9.13008 13.4589C9.9693 11.7208 11.3286 10.287 13.0194 9.35625C14.7102 8.42549 16.6488 8.04396 18.5662 8.26456C18.7111 8.27801 18.852 8.32026 18.9804 8.38883C19.1088 8.4574 19.2222 8.55092 19.314 8.6639C19.4058 8.77688 19.4741 8.90705 19.515 9.04678C19.5558 9.18651 19.5683 9.33298 19.5518 9.47762C19.5353 9.62225 19.4901 9.76214 19.4189 9.88908C19.3476 10.016 19.2517 10.1274 19.1368 10.2168C19.0219 10.3062 18.8904 10.3718 18.7498 10.4097C18.6092 10.4476 18.4625 10.457 18.3183 10.4375C17.3223 10.3223 16.3132 10.4191 15.3572 10.7215C14.4013 11.0238 13.5201 11.5249 12.7714 12.1919C12.0228 12.8589 11.4237 13.6766 11.0134 14.5914C10.6031 15.5063 10.3909 16.4975 10.3908 17.5002Z" fill="white"/>
</svg>
