<svg width="19" height="24" viewBox="0 0 19 24" fill="none" xmlns="http://www.w3.org/2000/svg">
<path d="M9.04167 2.33333C9.04167 1.04467 10.0863 0 11.375 0C12.6637 0 13.7083 1.04467 13.7083 2.33333C13.7083 3.622 12.6637 4.66667 11.375 4.66667C10.0863 4.66667 9.04167 3.622 9.04167 2.33333Z" fill="white"/>
<path d="M9.04167 9.33333C10.3303 9.33333 11.375 10.378 11.375 11.6667C11.375 12.9553 10.3303 14 9.04167 14C7.753 14 6.70833 12.9553 6.70833 11.6667C6.70833 10.378 7.753 9.33333 9.04167 9.33333Z" fill="white"/>
<path d="M6.70833 18.6667C7.997 18.6667 9.04167 19.7113 9.04167 21C9.04167 22.2887 7.997 23.3333 6.70833 23.3333C5.41967 23.3333 4.375 22.2887 4.375 21C4.375 19.7113 5.41967 18.6667 6.70833 18.6667Z" fill="white"/>
<path d="M12.8333 11.6667C12.8333 11.1834 13.2251 10.7917 13.7083 10.7917H17.2083C17.6916 10.7917 18.0833 11.1834 18.0833 11.6667C18.0833 12.1499 17.6916 12.5417 17.2083 12.5417H13.7083C13.2251 12.5417 12.8333 12.1499 12.8333 11.6667Z" fill="white"/>
<path d="M11.375 20.125C10.8918 20.125 10.5 20.5168 10.5 21C10.5 21.4832 10.8918 21.875 11.375 21.875H17.2083C17.6916 21.875 18.0833 21.4832 18.0833 21C18.0833 20.5168 17.6916 20.125 17.2083 20.125H11.375Z" fill="white"/>
<path d="M7.58333 2.33333C7.58333 1.85008 7.19158 1.45833 6.70833 1.45833L0.875 1.45833C0.391751 1.45833 0 1.85008 0 2.33333C0 2.81658 0.391751 3.20833 0.875 3.20833L6.70833 3.20833C7.19158 3.20833 7.58333 2.81658 7.58333 2.33333Z" fill="white"/>
<path d="M0.875 10.7917C0.391751 10.7917 0 11.1834 0 11.6667C0 12.1499 0.391751 12.5417 0.875 12.5417H4.375C4.85825 12.5417 5.25 12.1499 5.25 11.6667C5.25 11.1834 4.85825 10.7917 4.375 10.7917H0.875Z" fill="white"/>
<path d="M0 21C0 20.5168 0.391751 20.125 0.875 20.125H2.04167C2.52492 20.125 2.91667 20.5168 2.91667 21C2.91667 21.4832 2.52492 21.875 2.04167 21.875H0.875C0.391751 21.875 0 21.4832 0 21Z" fill="white"/>
<path d="M17.2083 1.45833C17.6916 1.45833 18.0833 1.85008 18.0833 2.33333C18.0833 2.81658 17.6916 3.20833 17.2083 3.20833H16.0417C15.5584 3.20833 15.1667 2.81658 15.1667 2.33333C15.1667 1.85008 15.5584 1.45833 16.0417 1.45833H17.2083Z" fill="white"/>
</svg>
