<svg width="22" height="22" viewBox="0 0 22 22" fill="none" xmlns="http://www.w3.org/2000/svg">
<path d="M6.74123 5.94531H5.23592C4.64689 5.94531 4.36328 6.05461 4.36328 6.53552V7.08201C4.36328 7.56292 4.66871 7.67222 5.23592 7.67222H5.58498C5.80314 7.67222 5.89041 7.78152 5.89041 8.13127V15.3012C5.89041 15.8914 5.99949 16.1756 6.47944 16.1756H7.04666C7.52661 16.1756 7.63569 15.8696 7.63569 15.3012V6.53552C7.61388 6.05461 7.30845 5.94531 6.74123 5.94531Z" fill="white"/>
<path d="M17.082 0.961821C16.4275 0.327893 15.6203 0 14.6386 0H7.28657C6.30484 0 5.47583 0.327893 4.84317 0.961821L0.938091 4.85282C0.327241 5.46489 0 6.27369 0 7.16994V14.6678C0 15.6952 0.349057 16.504 1.04717 17.1816L4.7559 20.8977C5.47583 21.6191 6.30484 21.9689 7.35202 21.947H14.6168C15.6203 21.947 16.4493 21.641 17.2129 20.8977L20.9216 17.1816C21.5979 16.504 21.9688 15.6952 21.9688 14.6678V7.16994C21.9688 6.27369 21.6415 5.46489 21.0307 4.85282L17.082 0.961821ZM20.4853 9.72751C20.4853 9.96796 20.3762 10.0991 20.1362 10.0991H19.0236V9.31217C19.0236 8.72197 18.9363 8.43779 18.4346 8.43779H17.9328C17.431 8.43779 17.3438 8.74383 17.3438 9.31217V10.0991H16.5802C15.9912 10.0991 15.7076 10.1866 15.7076 10.6893V11.214C15.7076 11.7167 16.013 11.8042 16.5802 11.8042H17.3656V12.5911C17.3656 13.1813 17.4529 13.4655 17.9546 13.4655H18.4564C18.9582 13.4655 19.0454 13.1595 19.0454 12.5911V11.8042H20.158C20.3762 11.8042 20.4853 11.9135 20.5071 12.1321V14.6678C20.5071 15.2798 20.3326 15.7389 19.8963 16.1542L16.1875 19.8703C15.7512 20.3075 15.2712 20.5043 14.6822 20.5043H7.26475C6.67572 20.5043 6.19576 20.3075 5.75944 19.8703L2.05071 16.1542C1.61439 15.717 1.41804 15.2798 1.43986 14.6678V7.34481C1.43986 6.73275 1.63621 6.20812 2.09434 5.74907L5.84671 1.92364C6.21758 1.55203 6.71935 1.42087 7.26475 1.42087H14.6604C15.2058 1.42087 15.6858 1.53017 16.0784 1.92364L19.8526 5.74907C20.2889 6.20812 20.5071 6.73275 20.5071 7.34481V9.72751H20.4853Z" fill="white"/>
<path d="M13.9412 10.8642C14.8793 10.1865 14.8793 9.48701 14.8793 8.91866V8.35031C14.7702 6.47039 14.1594 5.74902 11.9778 5.74902C9.79618 5.74902 9.18533 6.47039 9.07625 8.35031V8.91866C9.07625 9.48701 9.09806 10.1865 10.0143 10.8642C8.90172 11.3014 8.81445 12.2413 8.81445 13.4873C8.81445 15.3235 9.46893 16.2416 11.956 16.2853C14.4648 16.2416 15.0975 15.3235 15.0975 13.4873C15.1411 12.2413 15.0538 11.3014 13.9412 10.8642ZM11.9996 7.30105C12.9159 7.30105 13.2867 7.62895 13.2867 8.74378C13.2867 9.8149 12.9159 10.1865 11.9996 10.1865C11.0833 10.1865 10.7125 9.8149 10.7125 8.74378C10.7125 7.62895 11.0833 7.30105 11.9996 7.30105ZM11.9996 14.7333C10.9306 14.7333 10.5597 14.318 10.5597 13.2687C10.5597 12.2195 10.9306 11.7385 11.9996 11.7385C13.0686 11.7385 13.4395 12.2195 13.4395 13.2687C13.4395 14.318 13.0468 14.7333 11.9996 14.7333Z" fill="white"/>
</svg>
